# xmcd
#
# Track frame offsets:
#	150
#	22672
#	41720
#	59017
#	81390
#	106322
#	126797
#	143067
#	164145
#	181430
#	205620
#	219137
#
# Disc length: 3120 seconds
#
# Revision: 2
# Processed by: cddbd v1.5.2PL0 Copyright (c) Steve Scherf et al.
# Submitted via: dBpowerAMP V4.0
#
DISCID=a70c2e0c
DTITLE=Renato Braz - Renato Braz
DYEAR=1900
DGENRE=Mpb
TTITLE0=Porto
TTITLE1=Sorri
TTITLE2=Anabela
TTITLE3=Meu Drama
TTITLE4=Onde Esta Voce
TTITLE5=Passarinheiro
TTITLE6=Cantiga do Sapo
TTITLE7=Pagã
TTITLE8=Bambayuque
TTITLE9=Assum Preto - Retirantes
TTITLE10=7 x 7
TTITLE11=Estela da Terra
EXTD=
EXTT0=
EXTT1=
EXTT2=
EXTT3=
EXTT4=
EXTT5=
EXTT6=
EXTT7=
EXTT8=
EXTT9=
EXTT10=
EXTT11=
PLAYORDER=
